<?xml version="1.0" encoding="UTF-8"?>
<svg id="Layer_2" data-name="Layer 2" xmlns="http://www.w3.org/2000/svg" viewBox="0 0 441.87 158.52">
  <defs>
    <style>
      .cls-1 {
        fill: #ffffff;
      }
    </style>
  </defs>
  <g id="Layer_2-2" data-name="Layer 2">
    <g id="Layer_1-2" data-name="Layer 1-2">
      <path class="cls-1" d="m43.83,55.9c4.62-3.56,10.45-3.81,15.68-5.71,2.73.65,4.81-1.09,7.72-1.91-2.89-.67-5.19-1.05-7.47.11-17.78,0-35.57-.22-53.35.14-5.36.11-6.54-1.61-6.4-6.62C.36,29.63.31,17.33.01,5.05-.08.88,1.18,0,5.17,0,54.57.14,103.97.13,153.37,0c3.83,0,5.33.63,5.22,4.93-.32,12.94-.27,25.89-.02,38.84.07,3.89-1.27,4.72-4.87,4.69-18.66-.16-37.32-.07-55.99-.07-2.3-1.17-4.62-.77-7.42-.09,2.85.82,4.96,2.66,7.74,1.83,17.5,4.78,32.81,13.11,44.65,27.2,1.4,1.67,3.83,3.61,3.15,5.27-.79,1.92-3.73,1.98-6.14,2.06-11.94.4-23.83,1.52-35.82,1.36-11.83-.15-20.99-4.26-27.67-14.31-7.65-11.52-19.65-13.69-32.37-13.73v-2.08h0Z"/>
      <path class="cls-1" d="m158.47,136.78c0,5.7-.13,11.4.05,17.1.1,3.12-.37,4.7-4.17,4.58-9.64-.3-19.31-.32-28.95.02-3.24.11-4.23-1.7-5.04-3.8-3.6-9.33-.61-17.53,4.55-25.37,5.15-7.81,4.12-9.93-4.79-13.24-9.38-3.48-18.19-2.93-27.04,1.66-10.53,5.45-13.76,3.64-16.41-7.91-1.85-8.06-4.65-15.8-9.17-22.86-5.01-7.83-12.87-10.72-21.46-6.49-9.07,4.47-16.92,2.9-24.38-2.96-3.13-2.46-4.54-4.54.3-7.82,5.79-3.92,9.88-10.08,18.37-8.89,17.12,2.41,37.25,11.8,40.51,32.84,1.24,7.96,4.8,8.94,11.35,3.84,12.7-9.89,26.07-11.16,40.6-4,5.11,2.52,10.55,5.7,16.5.03,3.27-3.11,4.25,1.87,4.81,3.64,2.85,9.01,4.47,18.28,4.36,27.79-.05,3.95,0,7.89,0,11.84h0Z"/>
      <path class="cls-1" d="m40.11,158.36c1.83-3.88,3.49-7.29,5.06-10.74,3.27-7.15,1.26-12-6.35-14.24-10.64-3.13-19.11-8.55-22.09-19.92-1.03-3.92-1.74-8.03-1.78-12.06-.03-3.77-2.43-5.46-4.8-7.24-1.29-.97-4.79-.29-3.83-2.71,1.37-3.45,2.33-7.51,5.79-9.78,1.58-1.04,1.92.65,2.65,1.57,7.05,8.89,10.36,10.03,21.05,5.88,4.43-1.72,8.79-1.88,13.31-1.87,6.42,0,10.15,4,11.61,9.44,2.31,8.58,3.56,17.44,5.45,26.14,1.86,8.56,7.83,11.8,16.4,7.02,4.93-2.75,9.86-5.78,15.56-7.23,7.24-1.84,11.05.8,11.65,7.87.75,8.8-2.21,17.08-2.68,25.67-.16,2.88-2.22,2.19-3.82,2.19-20.84.03-41.68.02-63.2.02h.02Z"/>
      <path class="cls-1" d="m.13,130.64c9.25,6.49,13.7,14.82,15.83,24.62.13.62.33,1.68.06,1.86-4.1,2.61-8.68.67-13.01,1.24-2.35.31-2.93-.94-2.9-3.07.08-7.96.03-15.91.03-24.65h-.01Z"/>
      <rect class="cls-1" x="0" y="0" width="158.59" height="48.36"/>
    </g>
    
    <g>
      <path  class="cls-1" d="m193.87,34.04V6.08h-9.51V0h25.44v6.08h-9.51v27.96h-6.42Z"/>
      <path  class="cls-1" d="m215.6,0h6.23v9.56l-.38,4.23h.38c.67-1.11,1.63-2.02,2.87-2.73,1.25-.71,2.65-1.07,4.21-1.07,3.01,0,5.24.89,6.68,2.66s2.16,4.2,2.16,7.27v14.12h-6.23v-13.36c0-1.62-.38-2.84-1.14-3.68-.76-.84-1.82-1.26-3.19-1.26-.86,0-1.61.18-2.28.55s-1.23.86-1.69,1.5c-.46.63-.81,1.37-1.04,2.21s-.36,1.74-.36,2.69v11.36h-6.23V0Z"/>
      <path  class="cls-1" d="m266.95,28.43c-1.08,1.9-2.53,3.44-4.35,4.61s-4.05,1.76-6.68,1.76c-1.78,0-3.42-.31-4.92-.93-1.51-.62-2.81-1.48-3.92-2.59-1.11-1.11-1.97-2.42-2.59-3.92-.62-1.51-.93-3.16-.93-4.97,0-1.68.3-3.27.91-4.78.6-1.51,1.44-2.82,2.52-3.95,1.08-1.12,2.35-2.02,3.83-2.69s3.1-1,4.88-1c1.87,0,3.53.31,4.99.93,1.45.62,2.68,1.47,3.66,2.57s1.73,2.39,2.23,3.88.76,3.11.76,4.85v.57c-.03.19-.05.37-.05.52-.03.16-.05.33-.05.52h-17.54c.13.95.39,1.77.79,2.45.39.68.89,1.25,1.47,1.71.58.46,1.23.79,1.93,1,.7.21,1.41.31,2.14.31,1.42,0,2.6-.32,3.54-.97s1.67-1.47,2.21-2.45l5.18,2.57Zm-5.66-9.03c-.03-.41-.17-.87-.4-1.38s-.59-.98-1.04-1.43c-.46-.44-1.03-.81-1.71-1.1-.68-.28-1.5-.43-2.45-.43-1.33,0-2.51.38-3.52,1.14s-1.73,1.82-2.14,3.19h11.27Z"/>
      <path  class="cls-1" d="m183.79,57.05h6.95l7.03,20.49,1.24,4.37h.38l1.33-4.37,7.32-20.49h6.94l-12.41,34.04h-6.75l-12.03-34.04Z"/>
      <path  class="cls-1" d="m222.73,64.66c-.54,0-1.05-.1-1.54-.31-.49-.21-.92-.49-1.28-.86-.36-.37-.65-.79-.86-1.26-.21-.47-.31-1-.31-1.57s.1-1.09.31-1.57c.21-.47.49-.89.86-1.26.36-.36.79-.65,1.28-.86.49-.21,1.01-.31,1.54-.31,1.11,0,2.06.39,2.85,1.16.79.78,1.19,1.72,1.19,2.83s-.4,2.05-1.19,2.83c-.79.78-1.74,1.16-2.85,1.16Zm-3.09,26.44v-23.3h6.23v23.3h-6.23Z"/>
      <path  class="cls-1" d="m239.42,71.41h.38c.63-1.17,1.56-2.12,2.78-2.83,1.22-.71,2.57-1.07,4.06-1.07.54,0,.97.02,1.28.05s.62.09.91.19v6.18c-.35-.16-.74-.28-1.16-.38-.43-.09-.94-.14-1.55-.14-1.97,0-3.51.59-4.64,1.78-1.13,1.19-1.69,2.81-1.69,4.87v11.41h-6.23v-23.3h5.85v3.23Zm16.31,1.71h-4.09v-5.32h4.09v-7.13h6.23v7.13h5.71v5.32h-5.71v9.31c0,.56.05,1.07.17,1.54.11.47.33.87.64,1.2.44.52,1.08.78,1.9.78.54,0,.97-.06,1.28-.17s.62-.26.91-.45l1.76,5.47c-.73.35-1.51.61-2.35.78s-1.77.26-2.78.26c-1.17,0-2.22-.19-3.16-.56-.94-.37-1.72-.88-2.35-1.53-1.49-1.46-2.24-3.53-2.24-6.21v-10.44Z"/>
      <path  class="cls-1" d="m290.34,88.05h-.38c-.73,1.17-1.71,2.1-2.94,2.78-1.24.68-2.65,1.02-4.23,1.02-2.95,0-5.14-.9-6.59-2.71s-2.16-4.21-2.16-7.23v-14.12h6.23v13.36c0,1.68.37,2.92,1.11,3.73.75.81,1.83,1.21,3.26,1.21.86,0,1.61-.18,2.26-.55s1.2-.86,1.66-1.47c.46-.62.81-1.35,1.04-2.19.24-.84.36-1.74.36-2.69v-11.41h6.23v23.3h-5.85v-3.04Z"/>
      <path  class="cls-1" d="m317.63,88.62h-.38c-.73.89-1.61,1.65-2.64,2.28-1.03.63-2.35.95-3.97.95-1.21,0-2.34-.2-3.4-.59-1.06-.4-1.99-.94-2.78-1.64-.79-.7-1.41-1.54-1.85-2.52s-.67-2.06-.67-3.23.24-2.29.71-3.26c.48-.97,1.14-1.8,2-2.5.86-.7,1.86-1.23,3.02-1.59,1.16-.36,2.41-.55,3.78-.55,1.52,0,2.77.12,3.75.36s1.79.48,2.43.74v-.71c0-1.24-.49-2.26-1.47-3.07s-2.2-1.21-3.66-1.21c-2.16,0-3.98.9-5.47,2.71l-4.52-3.09c2.47-3.11,5.85-4.66,10.13-4.66,3.61,0,6.37.85,8.27,2.54,1.9,1.7,2.85,4.21,2.85,7.54v13.98h-6.13v-2.47Zm0-6.99c-.73-.35-1.48-.62-2.26-.83-.77-.21-1.62-.31-2.54-.31-1.49,0-2.64.33-3.45.97-.81.65-1.21,1.45-1.21,2.4s.39,1.71,1.16,2.28c.77.57,1.67.86,2.69.86.82,0,1.59-.15,2.28-.45s1.29-.7,1.78-1.19.87-1.06,1.14-1.71c.27-.65.4-1.32.4-2.02Z"/>
      <path  class="cls-1" d="m330.7,91.1v-34.04h6.23v34.04h-6.23Z"/>
      <path  class="cls-1" d="m196.58,114.11h7.32l12.79,34.04h-7.08l-2.81-8.13h-13.12l-2.81,8.13h-7.08l12.79-34.04Zm8.13,20.02l-3.04-8.51-1.24-4.14h-.38l-1.24,4.14-3.04,8.51h8.94Z"/>
      <path  class="cls-1" d="m227.77,128.47h.38c.63-1.17,1.56-2.12,2.78-2.83,1.22-.71,2.57-1.07,4.06-1.07.54,0,.97.02,1.28.05s.62.09.91.19v6.18c-.35-.16-.74-.28-1.16-.38-.43-.09-.94-.14-1.55-.14-1.97,0-3.51.59-4.64,1.78-1.13,1.19-1.69,2.81-1.69,4.87v11.41h-6.23v-23.3h5.85v3.23Zm16.31,1.71h-4.09v-5.32h4.09v-7.13h6.23v7.13h5.71v5.32h-5.71v9.31c0,.56.05,1.07.17,1.54.11.47.33.87.64,1.2.44.53,1.08.79,1.9.79.54,0,.97-.06,1.28-.17s.62-.26.91-.45l1.76,5.47c-.73.35-1.51.61-2.35.79s-1.77.26-2.78.26c-1.17,0-2.22-.19-3.16-.56s-1.72-.88-2.35-1.53c-1.49-1.45-2.24-3.52-2.24-6.21v-10.44Z"/>
      <path  class="cls-1" d="m291,129.47h16.69c.09.38.17.84.24,1.38.07.54.1,1.08.1,1.62,0,2.19-.33,4.25-1,6.18s-1.71,3.66-3.14,5.18c-1.52,1.62-3.35,2.87-5.47,3.76-2.12.89-4.55,1.33-7.27,1.33-2.47,0-4.81-.44-6.99-1.33-2.19-.89-4.09-2.12-5.7-3.71-1.62-1.59-2.9-3.46-3.85-5.63-.95-2.17-1.42-4.54-1.42-7.11s.48-4.94,1.42-7.11c.95-2.17,2.24-4.05,3.85-5.64,1.61-1.58,3.52-2.82,5.7-3.71,2.19-.89,4.52-1.33,6.99-1.33,2.75,0,5.22.48,7.39,1.43,2.17.95,4.04,2.27,5.59,3.94l-4.42,4.33c-1.11-1.17-2.34-2.07-3.71-2.69-1.36-.62-2.99-.93-4.9-.93-1.55,0-3.03.28-4.42.83-1.39.56-2.61,1.34-3.66,2.35-1.04,1.01-1.88,2.24-2.5,3.68-.62,1.44-.92,3.05-.92,4.83s.31,3.38.92,4.83c.62,1.44,1.46,2.67,2.52,3.69,1.06,1.01,2.29,1.8,3.69,2.35,1.39.56,2.88.84,4.47.84,1.81,0,3.34-.26,4.59-.79,1.25-.52,2.32-1.2,3.21-2.02.63-.57,1.18-1.29,1.64-2.16.46-.87.82-1.85,1.07-2.92h-10.69v-5.47Z"/>
      <path  class="cls-1" d="m328.23,145.68h-.38c-.73.89-1.61,1.65-2.64,2.28s-2.35.95-3.97.95c-1.21,0-2.34-.2-3.4-.6-1.06-.39-1.99-.94-2.78-1.64s-1.41-1.54-1.85-2.52-.67-2.06-.67-3.23.24-2.29.71-3.26c.48-.97,1.14-1.8,2-2.5.86-.7,1.86-1.23,3.02-1.59,1.16-.36,2.41-.55,3.78-.55,1.52,0,2.77.12,3.75.36s1.79.48,2.43.74v-.71c0-1.24-.49-2.26-1.47-3.07s-2.2-1.21-3.66-1.21c-2.16,0-3.98.9-5.47,2.71l-4.52-3.09c2.47-3.11,5.85-4.66,10.13-4.66,3.61,0,6.37.85,8.27,2.54,1.9,1.7,2.85,4.21,2.85,7.54v13.98h-6.13v-2.47Zm0-6.99c-.73-.35-1.48-.62-2.26-.83-.77-.21-1.62-.31-2.54-.31-1.49,0-2.64.33-3.45.97-.81.65-1.21,1.45-1.21,2.4s.39,1.71,1.16,2.28c.77.57,1.67.86,2.69.86.82,0,1.59-.15,2.28-.45s1.29-.7,1.78-1.18c.49-.49.87-1.06,1.14-1.71.27-.65.4-1.32.4-2.02Z"/>
      <path  class="cls-1" d="m341.31,148.15v-34.04h6.23v34.04h-6.23Z"/>
      <path  class="cls-1" d="m354.86,148.15v-34.04h6.23v34.04h-6.23Z"/>
      <path  class="cls-1" d="m390.23,142.54c-1.08,1.9-2.53,3.44-4.35,4.61s-4.05,1.76-6.68,1.76c-1.78,0-3.42-.31-4.92-.93s-2.81-1.48-3.92-2.59-1.97-2.42-2.59-3.92c-.62-1.51-.93-3.16-.93-4.97,0-1.68.3-3.27.91-4.78.6-1.51,1.44-2.82,2.52-3.95,1.08-1.12,2.35-2.02,3.83-2.69s3.1-1,4.88-1c1.87,0,3.53.31,4.99.93,1.45.62,2.68,1.47,3.66,2.57s1.73,2.39,2.23,3.88.76,3.11.76,4.85v.57c-.03.19-.05.37-.05.52-.03.16-.05.33-.05.52h-17.54c.13.95.39,1.77.79,2.45.39.68.89,1.25,1.47,1.71.58.46,1.23.79,1.93,1,.7.2,1.41.31,2.14.31,1.42,0,2.6-.32,3.54-.97.94-.65,1.67-1.47,2.21-2.45l5.18,2.57Zm-5.66-9.03c-.03-.41-.17-.87-.4-1.38s-.59-.98-1.04-1.43c-.46-.44-1.03-.81-1.71-1.1-.68-.28-1.5-.43-2.45-.43-1.33,0-2.51.38-3.52,1.14s-1.73,1.82-2.14,3.19h11.27Z"/>
      <path  class="cls-1" d="m396.6,124.86h5.85v3.23h.38c.29-.57.67-1.09,1.14-1.57s1.01-.89,1.59-1.24c.59-.35,1.22-.64,1.9-.86.68-.22,1.35-.33,2.02-.33.82,0,1.53.09,2.12.26.58.18,1.09.41,1.5.69l-1.66,5.56c-.38-.19-.8-.34-1.26-.45-.46-.11-1.02-.17-1.69-.17-.86,0-1.63.17-2.33.5-.7.33-1.29.8-1.78,1.41s-.87,1.32-1.14,2.13c-.27.81-.4,1.7-.4,2.65v11.47h-6.23v-23.3Z"/>
      <path  class="cls-1" d="m425.75,147.01l-9.79-22.16h7.08l5.9,14.12h.33l5.66-14.12h6.94l-14.59,33.57h-6.71l5.18-11.41Z"/>
    </g>
  </g>
</svg>