<?xml version="1.0" encoding="UTF-8"?>
<svg id="Layer_2" data-name="Layer 2" xmlns="http://www.w3.org/2000/svg" viewBox="0 0 158.59 158.52">
  <defs>
    <style>
      .cls-1 {
        fill: #121212;
      }
    </style>
  </defs>
  <g id="Layer_1-2" data-name="Layer 1">
    <path class="cls-1" d="m43.83,55.9c4.62-3.56,10.45-3.81,15.68-5.71,2.73.65,4.81-1.09,7.72-1.91-2.89-.67-5.19-1.05-7.47.11-17.78,0-35.57-.22-53.35.14-5.36.11-6.54-1.61-6.4-6.62.35-12.28.3-24.58,0-36.86C-.08.88,1.18-.01,5.17,0c49.4.14,98.8.13,148.2,0,3.83,0,5.33.63,5.22,4.93-.32,12.94-.27,25.89-.02,38.84.07,3.89-1.27,4.72-4.87,4.69-18.66-.16-37.32-.07-55.99-.07-2.3-1.17-4.62-.77-7.42-.09,2.85.82,4.96,2.66,7.74,1.83,17.5,4.78,32.81,13.11,44.65,27.2,1.4,1.67,3.83,3.61,3.15,5.27-.79,1.92-3.73,1.98-6.14,2.06-11.94.4-23.83,1.52-35.82,1.36-11.83-.15-20.99-4.26-27.67-14.31-7.65-11.52-19.65-13.69-32.37-13.73v-2.08Z"/>
    <path class="cls-1" d="m158.47,136.78c0,5.7-.13,11.4.05,17.1.1,3.12-.37,4.7-4.17,4.58-9.64-.3-19.31-.32-28.95.02-3.24.11-4.23-1.7-5.04-3.8-3.6-9.33-.61-17.53,4.55-25.37,5.15-7.81,4.12-9.93-4.79-13.24-9.38-3.48-18.19-2.93-27.04,1.66-10.53,5.45-13.76,3.64-16.41-7.91-1.85-8.06-4.65-15.8-9.17-22.86-5.01-7.83-12.87-10.72-21.46-6.49-9.07,4.47-16.92,2.9-24.38-2.96-3.13-2.46-4.54-4.54.3-7.82,5.79-3.92,9.88-10.08,18.37-8.89,17.12,2.41,37.25,11.8,40.51,32.84,1.24,7.96,4.8,8.94,11.35,3.84,12.7-9.89,26.07-11.16,40.6-4,5.11,2.52,10.55,5.7,16.5.03,3.27-3.11,4.25,1.87,4.81,3.64,2.85,9.01,4.47,18.28,4.36,27.79-.05,3.95,0,7.89,0,11.84Z"/>
    <path class="cls-1" d="m40.11,158.36c1.83-3.88,3.49-7.29,5.06-10.74,3.27-7.15,1.26-12-6.35-14.24-10.64-3.13-19.11-8.55-22.09-19.92-1.03-3.92-1.74-8.03-1.78-12.06-.03-3.77-2.43-5.46-4.8-7.24-1.29-.97-4.79-.29-3.83-2.71,1.37-3.45,2.33-7.51,5.79-9.78,1.58-1.04,1.92.65,2.65,1.57,7.05,8.89,10.36,10.03,21.05,5.88,4.43-1.72,8.79-1.88,13.31-1.87,6.42,0,10.15,4,11.61,9.44,2.31,8.58,3.56,17.44,5.45,26.14,1.86,8.56,7.83,11.8,16.4,7.02,4.93-2.75,9.86-5.78,15.56-7.23,7.24-1.84,11.05.8,11.65,7.87.75,8.8-2.21,17.08-2.68,25.67-.16,2.88-2.22,2.19-3.82,2.19-20.84.03-41.68.02-63.2.02Z"/>
    <path class="cls-1" d="m.13,130.64c9.25,6.49,13.7,14.82,15.83,24.62.13.62.33,1.68.06,1.86-4.1,2.61-8.68.67-13.01,1.24-2.35.31-2.93-.94-2.9-3.07.08-7.96.03-15.91.03-24.65Z"/>
    <rect class="cls-1" width="158.59" height="48.36"/>
  </g>
</svg>